{
	"asset":{
		"generator":"Khronos glTF Blender I/O v3.5.30",
		"version":"2.0"
	},
	"scene":0,
	"scenes":[
		{
			"name":"Scene",
			"nodes":[
				0
			]
		}
	],
	"nodes":[
		{
			"mesh":0,
			"name":"Cube"
		}
	],
	"materials":[
		{
			"doubleSided":true,
			"name":"Material",
			"pbrMetallicRoughness":{
				"baseColorFactor":[
					0.800000011920929,
					0.800000011920929,
					0.800000011920929,
					1
				],
				"metallicFactor":0,
				"roughnessFactor":0.5
			}
		}
	],
	"meshes":[
		{
			"name":"Cube",
			"primitives":[
				{
					"attributes":{
						"POSITION":0,
						"TEXCOORD_0":1,
						"NORMAL":2
					},
					"indices":3,
					"material":0
				}
			]
		}
	],
	"accessors":[
		{
			"bufferView":0,
			"componentType":5126,
			"count":84,
			"max":[
				1.5837935209274292,
				1.2610585689544678,
				3.8265998363494873
			],
			"min":[
				-1.5837935209274292,
				-1.2610585689544678,
				-7.0867719650268555
			],
			"type":"VEC3"
		},
		{
			"bufferView":1,
			"componentType":5126,
			"count":84,
			"type":"VEC2"
		},
		{
			"bufferView":2,
			"componentType":5126,
			"count":84,
			"type":"VEC3"
		},
		{
			"bufferView":3,
			"componentType":5123,
			"count":132,
			"type":"SCALAR"
		}
	],
	"bufferViews":[
		{
			"buffer":0,
			"byteLength":1008,
			"byteOffset":0,
			"target":34962
		},
		{
			"buffer":0,
			"byteLength":672,
			"byteOffset":1008,
			"target":34962
		},
		{
			"buffer":0,
			"byteLength":1008,
			"byteOffset":1680,
			"target":34962
		},
		{
			"buffer":0,
			"byteLength":264,
			"byteOffset":2688,
			"target":34963
		}
	],
	"buffers":[
		{
			"byteLength":2952,
			"uri":"data:application/octet-stream;base64,"
		}
	]
}
